<svg width="30" height="113" viewBox="0 0 30 113" fill="none" xmlns="http://www.w3.org/2000/svg">
<path d="M13.5858 112.414C14.3668 113.195 15.6332 113.195 16.4142 112.414L29.1421 99.6863C29.9232 98.9052 29.9232 97.6389 29.1421 96.8579C28.3611 96.0768 27.0948 96.0768 26.3137 96.8579L15 108.172L3.68629 96.8579C2.90524 96.0768 1.63891 96.0768 0.857864 96.8579C0.0768156 97.6389 0.0768156 98.9052 0.857864 99.6863L13.5858 112.414ZM13 0V3.96429H17V0H13ZM13 11.8929V19.8214H17V11.8929H13ZM13 27.75V35.6786H17V27.75H13ZM13 43.6071V51.5357H17V43.6071H13ZM13 59.4643V67.3929H17V59.4643H13ZM13 75.3214V83.25H17V75.3214H13ZM13 91.1786V99.1071H17V91.1786H13ZM13 107.036V111H17V107.036H13Z" fill="white"/>
</svg>
