<svg width="85" height="84" viewBox="0 0 85 84" fill="none" xmlns="http://www.w3.org/2000/svg">
<path d="M78.8086 0H6.78984C3.48984 0 0.808594 2.71875 0.808594 6.05625V77.9438C0.808594 81.2812 3.48984 84 6.78984 84H78.8086C82.1086 84 84.8086 81.2812 84.8086 77.9438V6.05625C84.8086 2.71875 82.1086 0 78.8086 0ZM26.1961 72H13.7461V31.9125H26.2148V72H26.1961ZM19.9711 26.4375C15.9773 26.4375 12.7523 23.1938 12.7523 19.2188C12.7523 15.2437 15.9773 12 19.9711 12C23.9461 12 27.1898 15.2437 27.1898 19.2188C27.1898 23.2125 23.9648 26.4375 19.9711 26.4375ZM72.8648 72H60.4148V52.5C60.4148 47.85 60.3211 41.8688 53.9461 41.8688C47.4586 41.8688 46.4648 46.9313 46.4648 52.1625V72H34.0148V31.9125H45.9586V37.3875H46.1273C47.7961 34.2375 51.8648 30.9187 57.9211 30.9187C70.5211 30.9187 72.8648 39.225 72.8648 50.025V72Z" fill="white"/>
</svg>
