<svg width="92" height="31" viewBox="0 0 92 31" fill="none" xmlns="http://www.w3.org/2000/svg">
<path d="M1.704 19.956L1.728 18.06L1.752 14.532C1.768 14.02 1.776 13.492 1.776 12.948C1.776 12.404 1.776 11.844 1.776 11.268C1.776 10.692 1.776 10.18 1.776 9.732C1.776 9.284 1.792 8.78 1.824 8.22V8.124C1.84 7.964 1.848 7.804 1.848 7.644C1.864 7.468 1.872 7.292 1.872 7.116C1.888 6.828 1.976 6.516 2.136 6.18C2.248 5.956 2.416 5.764 2.64 5.604C2.896 5.476 3.144 5.412 3.384 5.412C3.512 5.412 3.624 5.42 3.72 5.436C3.832 5.436 3.936 5.444 4.032 5.46C4.24 5.492 4.424 5.588 4.584 5.748C4.68 5.828 4.768 5.956 4.848 6.132C4.88 6.228 4.904 6.324 4.92 6.42C4.952 6.5 4.976 6.588 4.992 6.684C5.008 6.796 5.016 6.9 5.016 6.996C5.032 7.092 5.04 7.188 5.04 7.284C5.04 7.396 5.032 7.5 5.016 7.596C5.016 7.676 5.016 7.764 5.016 7.86V8.268L4.872 20.724V20.964C4.872 21.012 4.864 21.076 4.848 21.156C4.848 21.22 4.84 21.3 4.824 21.396C4.792 21.476 4.76 21.564 4.728 21.66C4.712 21.74 4.688 21.828 4.656 21.924C4.608 22.004 4.552 22.084 4.488 22.164C4.44 22.228 4.376 22.292 4.296 22.356C4.168 22.484 3.96 22.572 3.672 22.62C3.24 22.716 2.832 22.676 2.448 22.5C2.256 22.372 2.12 22.212 2.04 22.02C1.992 21.972 1.968 21.924 1.968 21.876C1.952 21.844 1.936 21.82 1.92 21.804C1.904 21.788 1.888 21.764 1.872 21.732C1.84 21.652 1.816 21.572 1.8 21.492C1.784 21.396 1.776 21.3 1.776 21.204C1.76 21.124 1.744 21.044 1.728 20.964C1.728 20.884 1.72 20.804 1.704 20.724C1.688 20.596 1.688 20.46 1.704 20.316V19.956Z" fill="#0AC8FF"/>
<path d="M19.248 20.676C19.28 20.756 19.296 20.876 19.296 21.036C19.296 21.18 19.296 21.3 19.296 21.396C19.296 21.524 19.272 21.644 19.224 21.756C19.176 21.868 19.112 21.972 19.032 22.068C18.888 22.26 18.68 22.404 18.408 22.5C18.024 22.628 17.664 22.692 17.328 22.692C17.152 22.708 16.968 22.716 16.776 22.716C16.584 22.716 16.392 22.732 16.2 22.764H16.104C14.872 22.78 13.6 22.78 12.288 22.764C11.968 22.748 11.608 22.748 11.208 22.764C10.808 22.796 10.416 22.788 10.032 22.74C9.64801 22.708 9.29601 22.62 8.97601 22.476C8.67201 22.316 8.45601 22.068 8.32801 21.732C8.29601 21.652 8.27201 21.58 8.25601 21.516C8.24001 21.436 8.23201 21.356 8.23201 21.276C8.16801 20.732 8.14401 20.196 8.16001 19.668C8.17601 19.14 8.18401 18.62 8.18401 18.108L8.23201 14.628V11.412C8.23201 10.836 8.23201 10.324 8.23201 9.876C8.24801 9.428 8.26401 8.932 8.28001 8.388V8.268C8.29601 8.108 8.30401 7.948 8.30401 7.788C8.32001 7.628 8.32801 7.468 8.32801 7.308C8.36001 6.94 8.44801 6.628 8.59201 6.372C8.68801 6.132 8.85601 5.94 9.09601 5.796C9.30401 5.652 9.55201 5.58 9.84001 5.58C9.95201 5.58 10.056 5.588 10.152 5.604C10.264 5.604 10.368 5.612 10.464 5.628C10.56 5.644 10.648 5.676 10.728 5.724C10.824 5.772 10.92 5.836 11.016 5.916C11.112 6.028 11.2 6.164 11.28 6.324C11.344 6.5 11.384 6.676 11.4 6.852C11.416 6.964 11.432 7.068 11.448 7.164C11.464 7.26 11.472 7.356 11.472 7.452C11.44 7.548 11.424 7.644 11.424 7.74C11.424 7.836 11.424 7.924 11.424 8.004V8.436L11.328 19.74L16.08 19.788H17.208C17.304 19.788 17.408 19.796 17.52 19.812C17.632 19.812 17.744 19.82 17.856 19.836C17.984 19.852 18.096 19.868 18.192 19.884C18.288 19.9 18.384 19.924 18.48 19.956C18.656 20.004 18.8 20.084 18.912 20.196C19.088 20.356 19.2 20.516 19.248 20.676Z" fill="#00D0D0"/>
<path d="M36.592 15.516C36.672 15.74 36.728 15.996 36.76 16.284C36.808 16.556 36.832 16.836 36.832 17.124C36.832 17.412 36.808 17.7 36.76 17.988C36.728 18.26 36.68 18.5 36.616 18.708C36.36 19.604 35.848 20.356 35.08 20.964C34.312 21.556 33.432 21.988 32.44 22.26C31.464 22.532 30.448 22.628 29.392 22.548C28.352 22.468 27.424 22.204 26.608 21.756C26.096 21.468 25.656 21.116 25.288 20.7C24.92 20.284 24.608 19.82 24.352 19.308C24.256 19.132 24.192 18.932 24.16 18.708C24.144 18.468 24.168 18.244 24.232 18.036C24.296 17.812 24.4 17.62 24.544 17.46C24.688 17.284 24.888 17.164 25.144 17.1C25.304 17.068 25.48 17.052 25.672 17.052C25.88 17.052 26.08 17.084 26.272 17.148C26.464 17.196 26.64 17.284 26.8 17.412C26.96 17.524 27.088 17.684 27.184 17.892C27.36 18.228 27.608 18.54 27.928 18.828C28.264 19.1 28.616 19.324 28.984 19.5C29.512 19.676 30.04 19.748 30.568 19.716C31.112 19.684 31.6 19.564 32.032 19.356C32.48 19.148 32.84 18.868 33.112 18.516C33.384 18.148 33.52 17.732 33.52 17.268C33.52 16.884 33.464 16.572 33.352 16.332C33.24 16.076 33.08 15.868 32.872 15.708C32.68 15.532 32.44 15.388 32.152 15.276C31.88 15.164 31.576 15.068 31.24 14.988C30.856 14.908 30.464 14.852 30.064 14.82C29.68 14.788 29.288 14.748 28.888 14.7C28.488 14.652 28.096 14.588 27.712 14.508C27.328 14.428 26.952 14.308 26.584 14.148C25.848 13.844 25.288 13.38 24.904 12.756C24.52 12.132 24.288 11.46 24.208 10.74C24.144 10.02 24.232 9.308 24.472 8.604C24.712 7.884 25.096 7.268 25.624 6.756C26.136 6.292 26.744 5.964 27.448 5.772C28.168 5.564 28.96 5.444 29.824 5.412C30.304 5.396 30.784 5.412 31.264 5.46C31.76 5.508 32.232 5.588 32.68 5.7C33.144 5.812 33.568 5.956 33.952 6.132C34.352 6.308 34.696 6.516 34.984 6.756C35.192 6.916 35.4 7.132 35.608 7.404C35.816 7.66 35.976 7.94 36.088 8.244C36.2 8.532 36.232 8.812 36.184 9.084C36.152 9.356 35.984 9.588 35.68 9.78C35.424 9.94 35.176 10.012 34.936 9.996C34.712 9.964 34.496 9.892 34.288 9.78C34.08 9.652 33.88 9.508 33.688 9.348C33.496 9.188 33.32 9.044 33.16 8.916C32.728 8.596 32.192 8.38 31.552 8.268C30.912 8.156 30.312 8.132 29.752 8.196C29.4 8.244 29.072 8.324 28.768 8.436C28.464 8.548 28.2 8.7 27.976 8.892C27.768 9.084 27.6 9.324 27.472 9.612C27.36 9.884 27.32 10.196 27.352 10.548C27.368 10.804 27.44 11.02 27.568 11.196C27.712 11.372 27.88 11.516 28.072 11.628C28.28 11.74 28.504 11.828 28.744 11.892C28.984 11.956 29.224 12.004 29.464 12.036C30.184 12.132 30.904 12.204 31.624 12.252C32.344 12.3 33.048 12.46 33.736 12.732C34.44 13.004 35.04 13.372 35.536 13.836C36.032 14.3 36.384 14.86 36.592 15.516ZM47.7205 11.916C47.8485 12.22 47.8565 12.556 47.7445 12.924C47.6485 13.292 47.4645 13.532 47.1925 13.644C47.0485 13.708 46.8565 13.764 46.6165 13.812C46.3765 13.844 46.1125 13.876 45.8245 13.908C45.5525 13.94 45.2805 13.964 45.0085 13.98C44.7365 13.996 44.5045 14.004 44.3125 14.004C44.3285 14.484 44.3445 14.98 44.3605 15.492C44.3765 15.988 44.3925 16.476 44.4085 16.956C44.4245 17.436 44.4325 17.9 44.4325 18.348C44.4325 18.78 44.4245 19.172 44.4085 19.524C44.4085 19.764 44.4085 20.044 44.4085 20.364C44.4085 20.668 44.3845 20.964 44.3365 21.252C44.3045 21.54 44.2485 21.796 44.1685 22.02C44.0885 22.228 43.9685 22.364 43.8085 22.428C43.3125 22.636 42.8565 22.692 42.4405 22.596C42.0405 22.516 41.7525 22.348 41.5765 22.092C41.4485 21.884 41.3525 21.644 41.2885 21.372C41.2245 21.084 41.1765 20.796 41.1445 20.508C41.1285 20.204 41.1205 19.916 41.1205 19.644C41.1365 19.356 41.1445 19.108 41.1445 18.9C41.1605 18.228 41.1685 17.468 41.1685 16.62C41.1845 15.756 41.1925 14.892 41.1925 14.028H40.8325C40.6405 14.028 40.3925 14.028 40.0885 14.028C39.8005 14.012 39.5045 13.988 39.2005 13.956C38.9125 13.908 38.6405 13.852 38.3845 13.788C38.1285 13.708 37.9445 13.596 37.8325 13.452C37.6565 13.244 37.5445 13.02 37.4965 12.78C37.4645 12.54 37.4805 12.316 37.5445 12.108C37.6245 11.884 37.7445 11.692 37.9045 11.532C38.0645 11.356 38.2485 11.244 38.4565 11.196C38.7445 11.116 39.1525 11.076 39.6805 11.076C40.2085 11.06 40.7045 11.06 41.1685 11.076C41.1525 10.916 41.1445 10.764 41.1445 10.62C41.1445 10.46 41.1365 10.308 41.1205 10.164C41.1045 9.972 41.0965 9.732 41.0965 9.444C41.0965 9.14 41.1125 8.844 41.1445 8.556C41.1925 8.252 41.2645 7.972 41.3605 7.716C41.4565 7.444 41.5925 7.236 41.7685 7.092C42.0085 6.9 42.2485 6.796 42.4885 6.78C42.7445 6.748 42.9765 6.78 43.1845 6.876C43.4085 6.972 43.5925 7.116 43.7365 7.308C43.8965 7.484 44.0085 7.684 44.0725 7.908C44.1205 8.1 44.1605 8.332 44.1925 8.604C44.2245 8.86 44.2405 9.132 44.2405 9.42C44.2565 9.708 44.2645 9.996 44.2645 10.284C44.2645 10.572 44.2645 10.836 44.2645 11.076H44.5045C44.7445 11.076 45.0245 11.068 45.3445 11.052C45.6645 11.036 45.9765 11.044 46.2805 11.076C46.6005 11.108 46.8885 11.188 47.1445 11.316C47.4005 11.428 47.5925 11.628 47.7205 11.916ZM59.6177 16.788C59.5857 17.316 59.5537 17.852 59.5217 18.396C59.4897 18.924 59.4017 19.436 59.2577 19.932C59.1297 20.428 58.9217 20.876 58.6337 21.276C58.3617 21.676 57.9697 21.996 57.4577 22.236C57.0097 22.46 56.5297 22.612 56.0177 22.692C55.5057 22.788 54.9937 22.828 54.4817 22.812C53.9697 22.796 53.4737 22.716 52.9937 22.572C52.5137 22.444 52.0817 22.26 51.6977 22.02C51.3137 21.78 51.0017 21.468 50.7617 21.084C50.5217 20.7 50.3297 20.284 50.1857 19.836C50.0577 19.388 49.9697 18.924 49.9217 18.444C49.8737 17.964 49.8417 17.516 49.8257 17.1C49.7617 15.996 49.7617 14.908 49.8257 13.836C49.8257 13.628 49.8257 13.396 49.8257 13.14C49.8257 12.868 49.8417 12.604 49.8737 12.348C49.9217 12.092 49.9937 11.86 50.0897 11.652C50.1857 11.428 50.3457 11.26 50.5697 11.148C51.0497 10.892 51.4897 10.876 51.8897 11.1C52.3057 11.324 52.5537 11.788 52.6337 12.492C52.6817 12.86 52.6977 13.268 52.6817 13.716C52.6817 14.164 52.6977 14.572 52.7297 14.94C52.7457 15.484 52.7617 16.076 52.7777 16.716C52.7937 17.34 52.8817 17.9 53.0417 18.396C53.2177 18.892 53.4977 19.268 53.8817 19.524C54.2817 19.764 54.8737 19.772 55.6577 19.548C56.0257 19.436 56.2657 19.156 56.3777 18.708C56.5057 18.26 56.5697 17.596 56.5697 16.716C56.5697 16.332 56.5617 15.908 56.5457 15.444C56.5297 14.98 56.5217 14.524 56.5217 14.076C56.5217 13.612 56.5297 13.188 56.5457 12.804C56.5777 12.404 56.6257 12.1 56.6897 11.892C56.7697 11.604 56.9377 11.388 57.1937 11.244C57.4497 11.1 57.7217 11.028 58.0097 11.028C58.2977 11.012 58.5697 11.068 58.8257 11.196C59.0817 11.324 59.2577 11.532 59.3537 11.82C59.4497 12.076 59.5137 12.404 59.5457 12.804C59.5937 13.188 59.6257 13.612 59.6417 14.076C59.6577 14.524 59.6577 14.988 59.6417 15.468C59.6417 15.932 59.6337 16.372 59.6177 16.788ZM69.0776 5.724C69.3816 5.644 69.6456 5.636 69.8696 5.7C70.1096 5.748 70.3096 5.852 70.4696 6.012C70.6456 6.172 70.7736 6.372 70.8536 6.612C70.9496 6.852 70.9976 7.116 70.9976 7.404C71.0136 8.204 71.0136 8.828 70.9976 9.276C70.9976 9.724 70.9976 10.116 70.9976 10.452V17.82C70.9976 18.684 70.9976 19.404 70.9976 19.98C70.9976 20.556 70.9656 21.028 70.9016 21.396C70.8536 21.748 70.7576 22.012 70.6136 22.188C70.4856 22.364 70.2856 22.484 70.0136 22.548C69.7416 22.628 69.3816 22.668 68.9336 22.668C68.5016 22.668 67.9576 22.668 67.3016 22.668C65.5736 22.668 64.2056 22.26 63.1976 21.444C62.2056 20.628 61.6776 19.332 61.6136 17.556C61.5816 16.788 61.6776 16.084 61.9016 15.444C62.1256 14.804 62.4536 14.26 62.8856 13.812C63.3336 13.348 63.8776 12.996 64.5176 12.756C65.1736 12.5 65.9176 12.38 66.7496 12.396H68.0696V8.1C68.0696 7.844 68.0696 7.596 68.0696 7.356C68.0696 7.1 68.0936 6.868 68.1416 6.66C68.1896 6.436 68.2856 6.244 68.4296 6.084C68.5736 5.924 68.7896 5.804 69.0776 5.724ZM64.9016 19.044C65.2376 19.508 65.8456 19.764 66.7256 19.812C66.9016 19.828 67.0696 19.836 67.2296 19.836C67.3896 19.82 67.5336 19.796 67.6616 19.764C67.8056 19.748 67.9416 19.724 68.0696 19.692V15.252C67.5096 15.156 66.9976 15.1 66.5336 15.084C66.0856 15.052 65.6376 15.212 65.1896 15.564C64.9496 15.756 64.7656 16.004 64.6376 16.308C64.5096 16.596 64.4376 16.908 64.4216 17.244C64.4056 17.564 64.4376 17.884 64.5176 18.204C64.5976 18.524 64.7256 18.804 64.9016 19.044ZM75.9574 13.404C75.9574 13.852 75.9574 14.356 75.9574 14.916C75.9734 15.476 75.9814 16.06 75.9814 16.668C75.9814 17.26 75.9814 17.852 75.9814 18.444C75.9814 19.02 75.9734 19.556 75.9574 20.052C75.9414 20.292 75.9174 20.556 75.8854 20.844C75.8534 21.116 75.7894 21.372 75.6934 21.612C75.5974 21.852 75.4454 22.052 75.2374 22.212C75.0454 22.356 74.7814 22.42 74.4454 22.404C73.9494 22.372 73.5894 22.156 73.3654 21.756C73.1574 21.356 73.0374 20.796 73.0054 20.076C73.0054 19.708 72.9974 19.284 72.9814 18.804C72.9814 18.324 72.9734 17.836 72.9574 17.34C72.9574 16.844 72.9574 16.364 72.9574 15.9C72.9574 15.42 72.9574 14.988 72.9574 14.604C72.9574 14.38 72.9494 14.108 72.9334 13.788C72.9334 13.468 72.9414 13.14 72.9574 12.804C72.9734 12.468 73.0134 12.148 73.0774 11.844C73.1414 11.524 73.2454 11.26 73.3894 11.052C73.5014 10.924 73.6614 10.828 73.8694 10.764C74.0774 10.684 74.2934 10.644 74.5174 10.644C74.7574 10.644 74.9814 10.684 75.1894 10.764C75.4134 10.844 75.5734 10.956 75.6694 11.1C75.7334 11.196 75.7814 11.332 75.8134 11.508C75.8454 11.684 75.8694 11.884 75.8854 12.108C75.9174 12.316 75.9334 12.54 75.9334 12.78C75.9494 13.004 75.9574 13.212 75.9574 13.404ZM75.0454 8.556C74.5494 8.684 74.1334 8.636 73.7974 8.412C73.4774 8.172 73.2774 7.82 73.1974 7.356C73.1334 7.02 73.1574 6.724 73.2694 6.468C73.3814 6.212 73.5494 6.02 73.7734 5.892C73.9974 5.748 74.2534 5.684 74.5414 5.7C74.8294 5.716 75.1174 5.828 75.4054 6.036C75.6774 6.228 75.8694 6.452 75.9814 6.708C76.1094 6.964 76.1494 7.212 76.1014 7.452C76.0694 7.692 75.9654 7.916 75.7894 8.124C75.6134 8.316 75.3654 8.46 75.0454 8.556ZM81.1622 11.652C81.6902 11.396 82.2422 11.212 82.8182 11.1C83.3942 10.988 83.9622 10.964 84.5222 11.028C85.0982 11.092 85.6502 11.244 86.1782 11.484C86.7222 11.724 87.2182 12.06 87.6662 12.492C88.0342 12.86 88.3542 13.308 88.6262 13.836C88.8982 14.348 89.0982 14.852 89.2262 15.348C89.4982 16.228 89.5382 17.116 89.3462 18.012C89.1542 18.908 88.8262 19.74 88.3622 20.508C88.1382 20.86 87.8582 21.18 87.5222 21.468C87.2022 21.74 86.8582 21.964 86.4902 22.14C86.0102 22.364 85.4902 22.516 84.9302 22.596C84.3702 22.692 83.8262 22.716 83.2982 22.668C82.3382 22.62 81.4902 22.38 80.7542 21.948C80.0342 21.516 79.4502 20.964 79.0022 20.292C78.5702 19.62 78.2822 18.86 78.1382 18.012C78.0102 17.148 78.0662 16.268 78.3062 15.372C78.5622 14.412 78.9302 13.636 79.4102 13.044C79.9062 12.436 80.4902 11.972 81.1622 11.652ZM81.8822 14.868C81.6422 15.092 81.4582 15.372 81.3302 15.708C81.2022 16.044 81.1222 16.396 81.0902 16.764C81.0582 17.116 81.0822 17.476 81.1622 17.844C81.2582 18.196 81.4022 18.516 81.5942 18.804C81.7542 19.044 82.0422 19.244 82.4582 19.404C82.8742 19.564 83.3062 19.66 83.7542 19.692C84.2662 19.724 84.7142 19.588 85.0982 19.284C85.4822 18.964 85.7702 18.572 85.9622 18.108C86.1702 17.644 86.2662 17.14 86.2502 16.596C86.2342 16.052 86.0902 15.556 85.8182 15.108C85.6262 14.788 85.3542 14.556 85.0022 14.412C84.6662 14.252 84.3062 14.172 83.9222 14.172C83.5542 14.156 83.1862 14.212 82.8182 14.34C82.4502 14.452 82.1382 14.628 81.8822 14.868Z" fill="#EFABFF"/>
</svg>
